<svg width="20" height="20" viewBox="0 0 20 20" fill="none" xmlns="http://www.w3.org/2000/svg">
<g id="chevron-right">
<path id="shape" d="M6.82937 4.50594C7.10221 4.13555 7.62339 4.05599 7.99392 4.32853L7.99555 4.33016L7.99881 4.3326C8.00146 4.33456 8.00541 4.33719 8.0102 4.34074C8.02027 4.3482 8.03522 4.35919 8.05414 4.37329C8.09203 4.40153 8.14721 4.44272 8.2169 4.49536C8.35658 4.60086 8.55564 4.75295 8.79389 4.93888C9.26959 5.31012 9.90649 5.82161 10.546 6.37687C11.1813 6.9285 11.8383 7.54007 12.3429 8.11108C12.5943 8.39564 12.8259 8.69018 12.9988 8.97697C13.1579 9.24086 13.3332 9.60333 13.3333 9.99992C13.3333 10.3967 13.1579 10.7597 12.9988 11.0237C12.8259 11.3104 12.5943 11.6043 12.3429 11.8888C11.8383 12.4598 11.1814 13.0713 10.546 13.623C9.90645 14.1782 9.26962 14.6897 8.79389 15.061C8.5556 15.2469 8.3566 15.399 8.2169 15.5045C8.14717 15.5571 8.09205 15.5983 8.05414 15.6265C8.03518 15.6407 8.02029 15.6516 8.0102 15.6591C8.00539 15.6627 8.00147 15.6653 7.99881 15.6672L7.99555 15.6697L7.99392 15.6713C7.62336 15.9439 7.1014 15.8644 6.82856 15.4939C6.55598 15.1233 6.63553 14.6014 7.00597 14.3285L7.00841 14.3269C7.0105 14.3254 7.01378 14.3228 7.01817 14.3196C7.02697 14.3131 7.0405 14.3034 7.05805 14.2903C7.09333 14.264 7.14584 14.2244 7.21267 14.1739C7.34639 14.0729 7.53818 13.9264 7.7685 13.7467C8.23025 13.3863 8.84351 12.8948 9.45388 12.3648C10.0684 11.8313 10.6616 11.2751 11.0945 10.7852C11.3117 10.5394 11.4709 10.3294 11.5714 10.1627C11.6191 10.0835 11.6429 10.0301 11.6552 9.99992C11.6429 9.96969 11.6191 9.91621 11.5714 9.83716C11.4709 9.67043 11.3117 9.46043 11.0945 9.2146C10.6616 8.72469 10.0684 8.16856 9.45388 7.63501C8.84353 7.10507 8.23023 6.61352 7.7685 6.25317C7.5382 6.07344 7.34638 5.92692 7.21267 5.82593C7.14586 5.77546 7.09332 5.73584 7.05805 5.70955C7.04053 5.6965 7.02696 5.68676 7.01817 5.68026C7.01381 5.67703 7.01049 5.67447 7.00841 5.67293L7.00597 5.6713C6.63546 5.39836 6.55646 4.87649 6.82937 4.50594Z" fill="#717190"/>
</g>
</svg>
