<svg preserveAspectRatio="none" overflow="visible" style="display: block;" width="24" height="24" viewBox="0 0 24 24" fill="none" xmlns="http://www.w3.org/2000/svg">
<g id="shopping-cart-add">
<g id="shape">
<path d="M20.0186 5.50333C20.376 5.50991 20.7579 5.52916 21.1006 5.61954C21.435 5.70777 21.7658 5.87268 22.0312 6.1713L22.1406 6.30704L22.2559 6.4877C22.4933 6.91273 22.5179 7.36582 22.4912 7.7543C22.4619 8.1806 22.355 8.70091 22.2412 9.26602C21.8385 11.2664 21.4328 13.222 20.46 14.642C19.9509 15.385 19.2845 15.9915 18.3984 16.4027C17.5238 16.8086 16.4867 17.0004 15.2637 17.0004L8 17.0004C7.44785 17.0004 7.00022 16.5525 7 16.0004C7 15.4481 7.44772 15.0004 8 15.0004L15.2637 15.0004C16.284 15.0004 17.0155 14.8394 17.5566 14.5883C18.0863 14.3424 18.4837 13.9867 18.8096 13.5111C19.5067 12.4936 19.8552 10.9829 20.2803 8.87149C20.4052 8.25095 20.4778 7.88192 20.4961 7.61661C20.4982 7.58524 20.4966 7.55835 20.4971 7.53555C20.4662 7.53098 20.4288 7.52597 20.3838 7.52188C20.278 7.51226 20.1475 7.50638 19.9814 7.50333C19.4293 7.49309 18.9898 7.03692 19 6.48477C19.0102 5.93265 19.4664 5.49316 20.0186 5.50333Z" fill="#D400CA"/>
<path d="M12 10.5V7.5L9 7.5C8.44772 7.5 8 7.05228 8 6.5C8 5.94772 8.44772 5.5 9 5.5L12 5.5L12 2.5C12 1.94772 12.4477 1.5 13 1.5C13.5523 1.5 14 1.94772 14 2.5L14 5.5L17 5.5C17.5523 5.5 18 5.94772 18 6.5C18 7.05228 17.5523 7.5 17 7.5L14 7.5V10.5C14 11.0523 13.5523 11.5 13 11.5C12.4477 11.5 12 11.0523 12 10.5Z" fill="#D400CA"/>
<path d="M3.43848 1C4.7289 1.00001 5.86429 1.82322 6.27637 3.02637L6.34863 3.27246L6.35352 3.29102L8.97852 15.7949C9.09177 16.3353 8.74546 16.8651 8.20508 16.9785C7.6647 17.0918 7.13494 16.7455 7.02148 16.2051L4.4082 3.75781L4.35352 3.59668C4.19603 3.23894 3.83981 3.00001 3.43848 3H2.5C1.94772 3 1.5 2.55228 1.5 2C1.5 1.44772 1.94772 1 2.5 1L3.43848 1Z" fill="#D400CA"/>
<path d="M8.87988 15C9.43217 15 9.87988 15.4477 9.87988 16C9.87988 16.5523 9.43217 17 8.87988 17L8.46875 17C7.87028 17 7.32034 17.3993 7.10156 18L17.5 18C18.0523 18 18.5 18.4477 18.5 19C18.5 19.5523 18.0523 20 17.5 20L6.41113 20C5.59369 19.9998 5 19.3213 5 18.5713C5.00007 16.6378 6.51508 15 8.46875 15H8.87988Z" fill="#D400CA"/>
<path d="M11 20.5C11 20.2239 10.7761 20 10.5 20C10.2239 20 10 20.2239 10 20.5C10 20.7761 10.2239 21 10.5 21C10.7761 21 11 20.7761 11 20.5ZM13 20.5C13 21.8807 11.8807 23 10.5 23C9.11929 23 8 21.8807 8 20.5C8 19.1193 9.11929 18 10.5 18C11.8807 18 13 19.1193 13 20.5Z" fill="#D400CA"/>
<path d="M18 20.5C18 20.2239 17.7761 20 17.5 20C17.2239 20 17 20.2239 17 20.5C17 20.7761 17.2239 21 17.5 21C17.7761 21 18 20.7761 18 20.5ZM20 20.5C20 21.8807 18.8807 23 17.5 23C16.1193 23 15 21.8807 15 20.5C15 19.1193 16.1193 18 17.5 18C18.8807 18 20 19.1193 20 20.5Z" fill="#D400CA"/>
</g>
</g>
</svg>
