<svg width="16" height="16" viewBox="0 0 16 16" fill="none" xmlns="http://www.w3.org/2000/svg"><path d="M7.9974 0.666667C8.79004 0.666667 9.38516 1.26379 9.7487 2L10.9225 4.36589L10.9245 4.37044C10.9453 4.4133 11.0091 4.49739 11.1211 4.58073C11.233 4.66395 11.3332 4.70206 11.3822 4.71029L13.5078 5.06641C14.3052 5.20041 15.0242 5.60042 15.2604 6.34115C15.4962 7.08091 15.143 7.82294 14.5703 8.39714L14.571 8.39779L12.918 10.0645C12.8773 10.1054 12.8159 10.2025 12.7754 10.3451C12.7359 10.484 12.7353 10.6004 12.748 10.6628L13.2214 12.7259C13.4205 13.5971 13.3741 14.5425 12.6836 15.0501C11.9902 15.5598 11.0762 15.3154 10.3105 14.8594L10.3099 14.8587L8.31706 13.6693C8.26546 13.6385 8.15279 13.6023 8.0013 13.6022C7.85027 13.6022 7.73338 13.6381 7.67578 13.6719L5.6875 14.8587C4.92191 15.3167 4.00883 15.5574 3.31576 15.0475C2.62597 14.54 2.57605 13.5973 2.77604 12.7259L3.24805 10.6667C3.26161 10.6053 3.26232 10.487 3.22201 10.3451C3.18151 10.2024 3.11941 10.1054 3.07878 10.0645L1.42578 8.39779C0.85628 7.82356 0.504943 7.08126 0.738932 6.34245C0.973772 5.60115 1.69081 5.20053 2.48893 5.06641L4.61328 4.71029L4.65625 4.69922C4.7082 4.68156 4.78494 4.64433 4.86914 4.58138C4.98102 4.49768 5.04486 4.41346 5.06576 4.37044L5.06836 4.36589L6.24154 2L6.24219 1.9987C6.60895 1.263 7.20567 0.666829 7.9974 0.666667Z" fill="#E4E4EF"/></svg>
