<svg width="24" height="24" viewBox="0 0 24 24" fill="none" xmlns="http://www.w3.org/2000/svg">
<g id="heart">
<path id="shape" d="M20 8.84961C19.9999 6.70457 18.2841 5.00004 16.2061 5C15.1345 5.0001 14.1566 5.45695 13.4629 6.20117L11.999 7.77148L10.5361 6.2002C9.84423 5.45676 8.87323 5.0001 7.79395 5C5.71588 5.00003 4.00011 6.70457 4 8.84961C4.00007 11.6947 5.30316 13.9956 6.99707 15.7393C8.70595 17.4982 10.7243 18.5913 11.8867 18.9912C11.8898 18.9918 11.8937 18.9925 11.8984 18.9932C11.9245 18.9969 11.9603 19 12 19V21C11.7509 21 11.476 20.9669 11.2422 20.8848C9.79306 20.3876 7.49981 19.1268 5.5625 17.1328C3.67919 15.1942 2.10159 12.5293 2.00488 9.17578L2 8.84961C2.00017 5.61834 4.59316 3.00005 7.79395 3L8.10352 3.00781C9.64027 3.08977 11.0141 3.77854 12 4.83789C13.0536 3.7075 14.5533 3.0001 16.2061 3C19.4068 3.00005 21.9998 5.61834 22 8.84961L21.9951 9.17578C21.8984 12.5293 20.3208 15.1942 18.4375 17.1328L18.0703 17.498C16.2165 19.2819 14.1164 20.4207 12.7578 20.8867L12.7568 20.8848C12.5232 20.9666 12.2488 21 12 21V19C12.0388 19 12.0745 18.9969 12.1006 18.9932C12.108 18.9921 12.1131 18.9908 12.1162 18.9902L12.1611 18.9746C13.3299 18.5617 15.3169 17.4747 17.0029 15.7393C18.6968 13.9956 19.9999 11.6947 20 8.84961Z" fill="#393939"/>
</g>
</svg>
