<svg width="50.0019" height="15" viewBox="0 0 50.0019 15" fill="none" xmlns="http://www.w3.org/2000/svg">
<g id="Visa">
<path id="Vector" d="M17.664 14.8287L20.1927 0.297075H24.2374L21.7068 14.8287H17.664ZM36.3198 0.610333C35.5186 0.31593 34.2629 0 32.6948 0C28.6981 0 25.883 1.97093 25.8589 4.79567C25.8364 6.88373 27.8688 8.04865 29.403 8.74368C30.9775 9.45615 31.5066 9.9103 31.4991 10.5462C31.489 11.5204 30.2418 11.9652 29.0791 11.9652C27.4604 11.9652 26.6003 11.7449 25.2719 11.2026L24.7506 10.9717L24.183 14.2246C25.1278 14.6305 26.8746 14.9817 28.6886 15C32.9404 15 35.7005 13.0516 35.7319 10.035C35.747 8.38187 34.6694 7.12402 32.3358 6.08678C30.9221 5.41453 30.0563 4.96595 30.0655 4.28525C30.0655 3.68122 30.7983 3.03533 32.382 3.03533C33.7045 3.01522 34.6628 3.29767 35.4093 3.59207L35.7717 3.75976L36.3198 0.610333ZM46.7283 0.296852H43.6029C42.6348 0.296852 41.9101 0.555624 41.485 1.50193L35.478 14.8191H39.7253C39.7253 14.8191 40.4196 13.0286 40.5766 12.6354C41.0408 12.6354 45.1669 12.6416 45.7567 12.6416C45.8777 13.1504 46.2488 14.8191 46.2488 14.8191H50.0019L46.7283 0.296407V0.296852ZM41.7695 9.68048C42.1041 8.84322 43.381 5.61823 43.381 5.61823C43.3572 5.6569 43.7131 4.77688 43.9173 4.23128L44.1906 5.48416C44.1906 5.48416 44.9651 8.95294 45.127 9.68026H41.7695V9.68048ZM14.2304 0.296852L10.2705 10.2068L9.84868 8.19295C9.11142 5.87143 6.81468 3.35624 4.24702 2.09705L7.86788 14.8055L12.1473 14.8008L18.515 0.296704L14.2304 0.29663" fill="#0E4595"/>
<path id="Vector_2" d="M6.57383 0.296367H0.0516976L0 0.598713C5.07415 1.80156 8.43153 4.7084 9.82554 8.20152L8.40735 1.52364C8.16258 0.603463 7.45246 0.328806 6.57399 0.296738" fill="#F2AE14"/>
</g>
</svg>
